<?xml version="1.0" encoding="iso-8859-1"?>
<!-- Generator: Adobe Illustrator 19.0.0, SVG Export Plug-In . SVG Version: 6.00 Build 0)  -->
<svg version="1.1" id="Layer_1" xmlns="http://www.w3.org/2000/svg" xmlns:xlink="http://www.w3.org/1999/xlink" x="0px" y="0px"
	 viewBox="0 0 512 512" style="enable-background:new 0 0 512 512;" xml:space="preserve">
<g>
	<g>
		<path d="M72.205,0v145.556c-4.169-0.747-8.562-1.146-13.128-1.146c-29.938,0-52.513,16.931-52.513,39.385
			c0,22.453,22.575,39.385,52.513,39.385s52.513-16.931,52.513-39.385V39.385h32.821V0H72.205z"/>
	</g>
</g>
<g>
	<g>
		<path d="M229.744,459.487h-78.769c-21.662,0-39.385,17.723-39.385,39.385V512h157.539v-13.128
			C269.128,477.21,251.405,459.487,229.744,459.487z"/>
	</g>
</g>
<g>
	<g>
		<path d="M466.051,459.487h-78.769c-21.661,0-39.385,17.723-39.385,39.385V512h157.538v-13.128
			C505.436,477.21,487.713,459.487,466.051,459.487z"/>
	</g>
</g>
<g>
	<g>
		<rect x="150.974" y="249.436" width="78.769" height="170.667"/>
	</g>
</g>
<g>
	<g>
		<rect x="387.282" y="249.436" width="78.769" height="170.667"/>
	</g>
</g>
<g>
	<g>
		<path d="M308.513,65.633c-82.587,0-150.322,63.551-156.99,144.418h79.33c6.249-37.254,38.63-65.649,77.661-65.649
			c39.031,0,71.411,28.394,77.661,65.649h79.327C458.835,129.184,391.1,65.633,308.513,65.633z"/>
	</g>
</g>
<g>
	<g>
		<path d="M269.128,288.82V430.7c16.078,9.325,28.575,24.165,34.876,41.916h9.018c6.302-17.751,18.797-32.591,34.876-41.916V288.82
			H269.128z"/>
	</g>
</g>
<g>
	<g>
		<path d="M308.513,183.795c-21.752,0-39.385,17.634-39.385,39.385v26.256h78.769V223.18
			C347.897,201.429,330.265,183.795,308.513,183.795z"/>
	</g>
</g>
<g>
</g>
<g>
</g>
<g>
</g>
<g>
</g>
<g>
</g>
<g>
</g>
<g>
</g>
<g>
</g>
<g>
</g>
<g>
</g>
<g>
</g>
<g>
</g>
<g>
</g>
<g>
</g>
<g>
</g>
</svg>
